name processed_emg_signals
nRows=90
nColumns=7
 
endheader
time	RGLTMED	RRF	RADDLONG	RST	RTA	RGM
0.617	0.3464915344206674	0.4492952619965389	0.3476699546094012	0.4150991293425892	0.738863764930356	0.0778614261132317
0.618	0.3549493133970958	0.4549290012755125	0.349021979595719	0.4152086015142534	0.7438750281061058	0.0784325441526716
0.619	0.3635391954742677	0.4606141606694804	0.3504247978251567	0.4154815519646155	0.7487522520344616	0.0789994270613237
0.62	0.3722576444369512	0.4663476661645425	0.3518766812854715	0.4159167830858308	0.7534902663642278	0.0795617067936351
0.621	0.3811009699558175	0.4721263319304584	0.3533758467193439	0.4165129372594593	0.7580839260279818	0.08011901237084
0.622	0.3900653296815528	0.4779468624412076	0.3549204580486732	0.4172685007934181	0.762528117659087	0.080670970309893
0.623	0.3991467315101272	0.4838058548670966	0.3565086288771066	0.41818180784107	0.7668177660436936	0.0812172050796906
0.624	0.4083410360133835	0.4896998017417766	0.358138425065644	0.419251044297712	0.7709478406093685	0.0817573395846237
0.625	0.4176439590294812	0.495625093907532	0.3598078673749875	0.4204742516703906	0.7749133619527647	0.0822909956753486
0.626	0.4270510744074189	0.501578023741023	0.3615149341684222	0.4218493309180517	0.7787094084094323	0.0828177946862951
0.627	0.4365578168998917	0.5075547886608643	0.3632575641680608	0.4233740462586277	0.7823311226693501	0.0833373579993994
0.628	0.4461594851986109	0.5135514949169894	0.3650336592565066	0.4250460289398501	0.7857737184419558	0.0838493076331598
0.629	0.4558512451057365	0.5195641616610649	0.3668410873166083	0.4268627809714935	0.7890324871742745	0.0843532668560607
0.63	0.4656281328346859	0.5255887252957977	0.368677685101141	0.4288216788181381	0.7921028048252831	0.0848488608231063
0.631	0.4754850584334219	0.5316210440993299	0.3705412611246702	0.4309199770535223	0.7949801386987461	0.0853357172340066
0.632	0.48541680932354	0.5376569031202797	0.3724295985711255	0.4331548119794667	0.7976600543352915	0.0858134670115095
0.633	0.4954180539489459	0.5436920193374691	0.3743404582101354	0.4355232052136438	0.8001382224625864	0.0862817449982353
0.634	0.5054833455293513	0.5497220470776863	0.3762715813176036	0.4380220672513766	0.8024104260004601	0.0867401906702971
0.635	0.5156071259149985	0.5557425836838241	0.378220692595588	0.4406482010058549	0.8044725671157361	0.0871884488658718
0.636	0.5257837295411258	0.561749175424855	0.38018550308776	0.4433983053306309	0.8063206743194421	0.0876261705266659
0.637	0.5360073874813055	0.5677373236376964	0.3821637130859822	0.4462689785269222	0.8079509095968493	0.0880530134499103
0.638	0.5462722316001586	0.5737024910901969	0.3841530150241435	0.4492567218376969	0.8093595755589242	0.0884686430483895
0.639	0.5565722988058539	0.5796401085530003	0.3861510963548695	0.4523579429297374	0.8105431226024952	0.0888727331157291
0.64	0.5669015354029411	0.5855455815671448	0.3881556424055046	0.4555689593643737	0.8114981560658808	0.0892649665942793
0.641	0.5772538015453876	0.5914142973924398	0.3901643392105596	0.4588860020574192	0.8122214433661437	0.0896450363429942
0.642	0.5876228757889694	0.5972416321214631	0.3921748763179537	0.4623052187284673	0.812709921103504	0.0900126459029659
0.643	0.5980024597413098	0.6030229579424267	0.394184949567441	0.4658226773399983	0.8129607021174114	0.090367510258508
0.644	0.6083861828076165	0.6087536505344017	0.3961922638399059	0.4694343695267688	0.8129710824773664	0.0907093565918638
0.645	0.6187676070298076	0.6144290965774266	0.3981945357764922	0.4731362140167067	0.8127385483897301	0.0910379250298312
0.646	0.6291402320172739	0.6200447013597671	0.4001894964667289	0.4769240600445194	0.8122607829994741	0.0913529693805493
0.647	0.6394974999679568	0.6255958964641479	0.4021748941054154	0.4807936907590177	0.8115356730636458	0.0916542578587619
0.648	0.6498328007793039	0.6310781475139008	0.4041484966185237	0.4847408266243445	0.8105613154716141	0.0919415737976914
0.649	0.66013947724969	0.6364869619593794	0.4061080942588346	0.4887611288144086	0.8093360235859706	0.0922147163455471
0.65	0.6704108303722591	0.6418178968841125	0.4080515021729807	0.4928502025991376	0.8078583333771926	0.0924735011445734
0.651	0.6806401247237295	0.6470665668091574	0.4099765629409513	0.4970036007200098	0.8061270093251357	0.0927177609905461
0.652	0.6908205939522943	0.6522286514732211	0.4118811490890353	0.5012168267517396	0.8041410500613354	0.0929473464705444
0.653	0.7009454463692999	0.6572999035658311	0.4137631655760229	0.505485338446015	0.8018996937279473	0.0931621265768682
0.654	0.7110078706506773	0.6622761563903005	0.4156205522524454	0.5098045510523533	0.7994024230309327	0.0933619892947116
0.655	0.721001041654408	0.6671533314338803	0.4174512862920799	0.5141698406106605	0.7966489699659296	0.0935468421611827
0.656	0.7309181263607717	0.6719274458226462	0.4192533845947198	0.5185765472097988	0.7936393201947871	0.0937166127929261
0.657	0.7407522899415028	0.6765946196394751	0.4210249061595562	0.5230199782073539	0.7903737170496167	0.093871249379677
0.658	0.7504967019632862	0.6811510830837743	0.4227639544267004	0.527495411407473	0.7868526651400324	0.0940107211411597
0.659	0.760144542730564	0.6855931834525639	0.4244686795847173	0.5319980981952106	0.7830769335388327	0.0941350187450929
0.66	0.7696890097714456	0.6899173919235537	0.4261372808401067	0.536523266627175	0.7790475585219326	0.0942441546844561
0.661	0.7791233244693984	0.6941203101216783	0.4277680086448711	0.5410661244789352	0.7747658458400108	0.0943381636127873
0.662	0.788440738842733	0.6981986764519535	0.4293591668773306	0.5456218622495439	0.7702333725017437	0.0944171026367018
0.663	0.7976345424730104	0.7021493721818569	0.4309091149714655	0.5501856561237947	0.7654519880515299	0.0944810515653043
0.664	0.8066980695827023	0.7059694272571708	0.4324162699896899	0.5547526708926858	0.7604238153274644	0.0945301131165221
0.665	0.8156247062613048	0.709656025835241	0.4338791086330033	0.5593180628324556	0.7551512506880577	0.0945644130806217
0.666	0.8244078978375806	0.7132065115206297	0.435296169182465	0.5638769825430903	0.7496369636983357	0.0945841004414129
0.667	0.8330411563937024	0.7166183922883083	0.4366660533651655	0.5684245777468395	0.743883896267488	0.0945893474557866
0.668	0.8415180684152406	0.7198893450816515	0.4379874281386571	0.5729559960478163	0.7378952612309491	0.0945803496921982
0.669	0.8498323025687667	0.7230172200735383	0.4392590273876349	0.5774663876540238	0.7316745403697332	0.0945573260288704
0.67	0.8579776175971935	0.7260000445806238	0.4404796535281263	0.5819509080628237	0.7252254818598967	0.0945205186123232
0.671	0.865947870321577	0.7288360266216382	0.4416481790139158	0.5864047207105678	0.7185520971458439	0.09447019277698
0.672	0.873737023736588	0.7315235581107276	0.4427635477409195	0.5908229995876108	0.7116586572334553	0.0944066369264007
0.673	0.8813391551861781	0.7340612176770616	0.4438247763437601	0.595200931821035	0.7045496884022223	0.0943301623767053
0.674	0.8887484646058562	0.7364477731009746	0.44483095537946	0.5995337202294685	0.6972299673397235	0.0942411031624109
0.675	0.8959592828179266	0.7386821833563654	0.4457812503928991	0.6038165858564034	0.6897045157055165	0.0941398158047274
0.676	0.9029660798654476	0.7407636002478504	0.4466749028583825	0.6080447704905706	0.6819785941347004	0.0940266790421229
0.677	0.9097634733695616	0.7426913696301723	0.4475112309918608	0.6122135391837691	0.6740576956932187	0.0939020935229034
0.678	0.9163462368925556	0.7444650321967736	0.448289630427132	0.616318182778195	0.6659475387985387	0.0937664814595548
0.679	0.9227093082879172	0.7460843238249246	0.4490095747481241	0.6203540204561063	0.6576540596206865	0.0936202862446566
0.68	0.9288477980158872	0.7475491754653911	0.4496706158680932	0.6243164023251148	0.6491834039809812	0.0934639720283207
0.681	0.9347569974019814	0.7488597125661013	0.4502723842458065	0.6282007120525915	0.6405419187688862	0.0932980232572349
0.682	0.940432386813758	0.7500162540215775	0.4508145889279134	0.6320023695622254	0.6317361429015815	0.093122944175597
0.683	0.9458696437300677	0.751019310643247	0.4512970174071744	0.6357168338052479	0.6227727978551246	0.0929392582884457
0.684	0.95106465067536	0.7518695831505479	0.451719535288163	0.6393396056178007	0.6136587777996972	0.0927475077879021
0.685	0.9560135029903184	0.7525679596870226	0.4520820857543072	0.6428662306750261	0.604401139373795	0.0925482529430887
0.686	0.9607125164079536	0.753115512869829	0.4523846888342211	0.6462923025520138	0.5950070911329918	0.0923420714543224
0.687	0.9651582344026745	0.7535134963826732	0.4526274404683619	0.6496134659007998	0.5854839827088765	0.0921295577723866
0.6880000000000001	0.9693474352783968	0.753763341124601	0.4528105113796547	0.6528254197525304	0.5758392937128924	0.0919113223836249
0.6890000000000001	0.9732771389613032	0.7538666509283706	0.4529341457539411	0.6559239209527352	0.56608062241886	0.0916879910617174
0.6900000000000001	0.9769446134645798	0.7538251978643816	0.4529986597373981	0.6589047877365833	0.5562156742569466	0.0914602040871254
0.6910000000000001	0.9803473809948444	0.7536409171471576	0.4530044397589536	0.6617639034492827	0.5462522501512777	0.0912286154351963
0.6920000000000001	0.9834832236733212	0.753315901663032	0.4529519406862189	0.6644972204151524	0.5361982347329404	0.0909938919342205
0.6930000000000001	0.9863501888482038	0.7528523961374067	0.4528416838249348	0.6671007639566361	0.5260615844598362	0.0907567123947131
0.6940000000000001	0.9889465939769306	0.7522527909611461	0.452674254771868	0.669570636562585	0.5158503156744083	0.0905177667113205
0.6950000000000001	0.9912710310585684	0.7515196156953747	0.4524503011328246	0.6719030222033807	0.5055724926295023	0.0902777549387525
0.6960000000000001	0.9933223705984212	0.7506555322753984	0.4521705301173297	0.6740941907887006	0.4952362155115242	0.0900373863429106
0.6970000000000001	0.99509976508929	0.7496633279356296	0.4518357060235154	0.6761405027616715	0.4848496084888166	0.089797378428186
0.6980000000000001	0.9966026519958237	0.7485459078787209	0.4514466476271914	0.6780384138219879	0.4744208078120723	0.0895584559416642
0.6990000000000001	0.9978307562300172	0.7473062877138497	0.4510042254906125	0.6797844797685396	0.4639579499930301	0.0893213498549205
0.7000000000000001	0.9987840921068872	0.7459475856899532	0.4505093592057963	0.681375361451398	0.4534691600872331	0.089086796324
0.7010000000000001	0.9994629647715056	0.7444730147499903	0.4499630145875039	0.6828078298219491	0.442962540106301	0.0888555356283402
0.7020000000000001	0.9998679710900812	0.7428858744323686	0.4493662008301797	0.6840787710697248	0.4324461575845913	0.0886283110894366
0.7030000000000001	1.0	0.7411895426453873	0.4487199676424118	0.6851851918341417	0.4219280343242557	0.0884058679701109
0.704	0.9998602323149244	0.7393874673405542	0.4480254023725708	0.686124224479219	0.411416135341592	0.0881889523552433
0.705	0.999450139982608	0.7374831581115147	0.4472836271377739	0.6868931324182908	0.4009183580362359	0.0879783100148661
0.706	0.9987714847933314	0.7354801777449221	0.4464957959679028	0.6874893154751088	0.3904425216032513	0.0877746852506932
